# xmcd
#
# Track frame offsets: 
#        150
#        19087
#        45117
#        68400
#        97460
#        120407
#        145692
#        173835
#        199087
#        225987
#        256585
#        281585
#
# Disc length: 4064 seconds
#
# Revision: 12
# Processed by: cddbd v1.5.2PL0 Copyright (c) Steve Scherf et al.
# Submitted via: ExactAudioCopyFreeDBPlugin 1.0
#
DISCID=930fde0c
DTITLE=徳永英明 - Ballade of Ballade Disc2
DYEAR=1997
DGENRE=JPop
TTITLE0=僕の時計
TTITLE1=MYSELF 〜風になりたい〜
TTITLE2=壊れかけのRadio
TTITLE3=道標
TTITLE4=LOVE IS ALL
TTITLE5=恋の花
TTITLE6=僕のそばに
TTITLE7=永遠の果てに
TTITLE8=未来飛行
TTITLE9=SMILE
TTITLE10=太陽がいっぱい
TTITLE11=Rainy Blue 〜1997 Track〜
EXTD=\n YEAR: 1997
EXTT0=
EXTT1=
EXTT2=
EXTT3=
EXTT4=
EXTT5=
EXTT6=
EXTT7=
EXTT8=
EXTT9=
EXTT10=
EXTT11=
PLAYORDER=
